<mxfile host="app.diagrams.net" modified="2023-03-06T13:53:00.336Z" agent="5.0 (Windows NT 10.0; Win64; x64) AppleWebKit/537.36 (KHTML, like Gecko) Chrome/110.0.0.0 Safari/537.36" etag="-d6EAgyTbcKh0gzXQVgD" version="20.8.23" type="github">
  <diagram name="Page-1" id="yLDWqIE75sYw8k0eYS2L">
    <mxGraphModel dx="1434" dy="796" grid="1" gridSize="10" guides="1" tooltips="1" connect="1" arrows="1" fold="1" page="1" pageScale="1" pageWidth="1169" pageHeight="827" math="0" shadow="0">
      <root>
        <mxCell id="0" />
        <mxCell id="1" parent="0" />
        <mxCell id="siINJO3Il-NJgjf8glhd-6" style="edgeStyle=orthogonalEdgeStyle;rounded=0;orthogonalLoop=1;jettySize=auto;html=1;" edge="1" parent="1" source="siINJO3Il-NJgjf8glhd-1" target="siINJO3Il-NJgjf8glhd-4">
          <mxGeometry relative="1" as="geometry" />
        </mxCell>
        <mxCell id="siINJO3Il-NJgjf8glhd-1" value="Attachment" style="ellipse;whiteSpace=wrap;html=1;aspect=fixed;fillColor=#f8cecc;strokeColor=#b85450;" vertex="1" parent="1">
          <mxGeometry x="190" y="200" width="80" height="80" as="geometry" />
        </mxCell>
        <mxCell id="siINJO3Il-NJgjf8glhd-2" value="File Uploader" style="whiteSpace=wrap;html=1;aspect=fixed;fillColor=#fff2cc;strokeColor=#d6b656;" vertex="1" parent="1">
          <mxGeometry x="560" y="146" width="80" height="80" as="geometry" />
        </mxCell>
        <mxCell id="siINJO3Il-NJgjf8glhd-3" value="File Uploader" style="whiteSpace=wrap;html=1;aspect=fixed;fillColor=#fff2cc;strokeColor=#d6b656;" vertex="1" parent="1">
          <mxGeometry x="560" y="240" width="80" height="80" as="geometry" />
        </mxCell>
        <mxCell id="siINJO3Il-NJgjf8glhd-7" style="edgeStyle=orthogonalEdgeStyle;rounded=0;orthogonalLoop=1;jettySize=auto;html=1;" edge="1" parent="1" source="siINJO3Il-NJgjf8glhd-4" target="siINJO3Il-NJgjf8glhd-2">
          <mxGeometry relative="1" as="geometry" />
        </mxCell>
        <mxCell id="siINJO3Il-NJgjf8glhd-8" style="edgeStyle=orthogonalEdgeStyle;rounded=0;orthogonalLoop=1;jettySize=auto;html=1;" edge="1" parent="1" source="siINJO3Il-NJgjf8glhd-4" target="siINJO3Il-NJgjf8glhd-3">
          <mxGeometry relative="1" as="geometry" />
        </mxCell>
        <mxCell id="siINJO3Il-NJgjf8glhd-19" style="edgeStyle=orthogonalEdgeStyle;rounded=0;orthogonalLoop=1;jettySize=auto;html=1;" edge="1" parent="1" source="siINJO3Il-NJgjf8glhd-4" target="siINJO3Il-NJgjf8glhd-5">
          <mxGeometry relative="1" as="geometry">
            <Array as="points">
              <mxPoint x="410" y="360" />
            </Array>
          </mxGeometry>
        </mxCell>
        <mxCell id="siINJO3Il-NJgjf8glhd-4" value="svc" style="whiteSpace=wrap;html=1;aspect=fixed;" vertex="1" parent="1">
          <mxGeometry x="370" y="200" width="80" height="80" as="geometry" />
        </mxCell>
        <mxCell id="siINJO3Il-NJgjf8glhd-5" value="File Uploader" style="whiteSpace=wrap;html=1;aspect=fixed;fillColor=#fff2cc;strokeColor=#d6b656;" vertex="1" parent="1">
          <mxGeometry x="560" y="334" width="80" height="80" as="geometry" />
        </mxCell>
        <mxCell id="siINJO3Il-NJgjf8glhd-11" style="edgeStyle=orthogonalEdgeStyle;rounded=0;orthogonalLoop=1;jettySize=auto;html=1;" edge="1" parent="1" source="siINJO3Il-NJgjf8glhd-10" target="siINJO3Il-NJgjf8glhd-4">
          <mxGeometry relative="1" as="geometry">
            <Array as="points">
              <mxPoint x="410" y="340" />
            </Array>
          </mxGeometry>
        </mxCell>
        <mxCell id="siINJO3Il-NJgjf8glhd-10" value="Attachment" style="ellipse;whiteSpace=wrap;html=1;aspect=fixed;fillColor=#f8cecc;strokeColor=#b85450;" vertex="1" parent="1">
          <mxGeometry x="190" y="310" width="80" height="80" as="geometry" />
        </mxCell>
        <mxCell id="siINJO3Il-NJgjf8glhd-14" value="" style="edgeStyle=orthogonalEdgeStyle;rounded=0;orthogonalLoop=1;jettySize=auto;html=1;" edge="1" parent="1" source="siINJO3Il-NJgjf8glhd-12" target="siINJO3Il-NJgjf8glhd-13">
          <mxGeometry relative="1" as="geometry" />
        </mxCell>
        <mxCell id="siINJO3Il-NJgjf8glhd-12" value="SCP" style="ellipse;whiteSpace=wrap;html=1;aspect=fixed;fillColor=#d5e8d4;strokeColor=#82b366;" vertex="1" parent="1">
          <mxGeometry x="10" y="70" width="80" height="80" as="geometry" />
        </mxCell>
        <mxCell id="siINJO3Il-NJgjf8glhd-15" value="" style="edgeStyle=orthogonalEdgeStyle;rounded=0;orthogonalLoop=1;jettySize=auto;html=1;" edge="1" parent="1" source="siINJO3Il-NJgjf8glhd-13" target="siINJO3Il-NJgjf8glhd-1">
          <mxGeometry relative="1" as="geometry" />
        </mxCell>
        <mxCell id="siINJO3Il-NJgjf8glhd-17" value="Arquivo 01.zip" style="edgeLabel;html=1;align=center;verticalAlign=middle;resizable=0;points=[];" vertex="1" connectable="0" parent="siINJO3Il-NJgjf8glhd-15">
          <mxGeometry x="-0.2" y="1" relative="1" as="geometry">
            <mxPoint as="offset" />
          </mxGeometry>
        </mxCell>
        <mxCell id="siINJO3Il-NJgjf8glhd-16" style="edgeStyle=orthogonalEdgeStyle;rounded=0;orthogonalLoop=1;jettySize=auto;html=1;" edge="1" parent="1" source="siINJO3Il-NJgjf8glhd-13" target="siINJO3Il-NJgjf8glhd-10">
          <mxGeometry relative="1" as="geometry">
            <Array as="points">
              <mxPoint x="50" y="350" />
              <mxPoint x="230" y="350" />
            </Array>
          </mxGeometry>
        </mxCell>
        <mxCell id="siINJO3Il-NJgjf8glhd-18" value="Arquivo 02.zip" style="edgeLabel;html=1;align=center;verticalAlign=middle;resizable=0;points=[];" vertex="1" connectable="0" parent="siINJO3Il-NJgjf8glhd-16">
          <mxGeometry y="1" relative="1" as="geometry">
            <mxPoint as="offset" />
          </mxGeometry>
        </mxCell>
        <mxCell id="siINJO3Il-NJgjf8glhd-13" value="svc" style="whiteSpace=wrap;html=1;aspect=fixed;" vertex="1" parent="1">
          <mxGeometry x="10" y="200" width="80" height="80" as="geometry" />
        </mxCell>
      </root>
    </mxGraphModel>
  </diagram>
</mxfile>
